<svg width="128" height="128" xmlns="http://www.w3.org/2000/svg" xmlns:xlink="http://www.w3.org/1999/xlink" overflow="hidden"><defs><clipPath id="clip0"><rect x="576" y="356" width="128" height="128"/></clipPath></defs><g clip-path="url(#clip0)" transform="translate(-576 -356)"><path d="M640 357.512C616.507 357.512 597.455 376.559 597.455 400.057 597.455 418.854 609.645 434.802 626.55 440.427 628.676 440.821 629.457 439.504 629.457 438.38 629.457 437.366 629.417 434.014 629.399 430.46 617.562 433.033 615.065 425.44 615.065 425.44 613.13 420.522 610.341 419.214 610.341 419.214 606.481 416.574 610.631 416.628 610.631 416.628 614.904 416.928 617.154 421.013 617.154 421.013 620.948 427.517 627.107 425.636 629.534 424.549 629.917 421.799 631.019 419.921 632.236 418.859 622.786 417.784 612.852 414.135 612.852 397.833 612.852 393.188 614.514 389.393 617.236 386.413 616.794 385.341 615.338 381.013 617.648 375.153 617.648 375.153 621.22 374.011 629.348 379.516 632.743 378.573 636.383 378.1 639.998 378.084 643.614 378.101 647.256 378.574 650.656 379.516 658.776 374.012 662.344 375.154 662.344 375.154 664.66 381.014 663.204 385.341 662.762 386.414 665.49 389.392 667.14 393.188 667.14 397.834 667.14 414.174 657.187 417.772 647.713 418.824 649.239 420.144 650.599 422.734 650.599 426.704 650.599 432.396 650.551 436.977 650.551 438.378 650.551 439.508 651.317 440.836 653.473 440.418 670.369 434.786 682.543 418.844 682.543 400.053 682.545 376.56 663.497 357.512 640 357.512Z" fill="#BFBFBF" fill-rule="evenodd"/><path d="M613.57 418.596C613.475 418.808 613.142 418.871 612.84 418.726 612.53 418.586 612.358 418.299 612.458 418.086 612.548 417.87 612.882 417.809 613.191 417.954 613.501 418.094 613.677 418.384 613.571 418.596ZM615.293 420.52C615.09 420.707 614.693 420.62 614.423 420.322 614.145 420.025 614.093 419.628 614.299 419.438 614.507 419.25 614.892 419.338 615.169 419.635 615.449 419.935 615.504 420.328 615.292 420.519ZM616.97 422.968C616.71 423.15 616.283 422.98 616.02 422.601 615.758 422.224 615.758 421.771 616.025 421.588 616.289 421.406 616.709 421.57 616.975 421.945 617.237 422.33 617.237 422.785 616.97 422.969ZM619.268 425.336C619.035 425.593 618.538 425.524 618.175 425.173 617.803 424.83 617.7 424.343 617.933 424.086 618.17 423.829 618.669 423.901 619.035 424.249 619.405 424.591 619.517 425.079 619.268 425.335ZM622.44 426.71C622.336 427.044 621.858 427.195 621.376 427.054 620.894 426.908 620.58 426.518 620.676 426.182 620.776 425.846 621.258 425.689 621.743 425.84 622.223 425.984 622.538 426.37 622.439 426.71ZM625.92 426.965C625.933 427.315 625.524 427.607 625.018 427.613 624.51 427.625 624.098 427.341 624.092 426.995 624.092 426.641 624.492 426.353 625 426.345 625.506 426.335 625.92 426.617 625.92 426.965ZM629.16 426.414C629.22 426.756 628.87 427.108 628.367 427.201 627.873 427.293 627.417 427.081 627.353 426.741 627.293 426.391 627.65 426.041 628.143 425.949 628.646 425.861 629.096 426.067 629.16 426.415Z" fill="#BFBFBF"/><path d="M600.855 464.302 590.155 464.302C589.879 464.302 589.655 464.526 589.655 464.802L589.655 470.034C589.655 470.31 589.879 470.534 590.155 470.534L594.328 470.534 594.328 477.034C594.328 477.034 593.391 477.354 590.798 477.354 587.742 477.354 583.471 476.238 583.471 466.846 583.471 457.453 587.919 456.216 592.095 456.216 595.709 456.216 597.265 456.852 598.257 457.159 598.567 457.253 598.857 456.943 598.857 456.667L600.05 451.612C600.054 451.458 599.982 451.313 599.858 451.222 599.455 450.934 597.001 449.562 590.8 449.562 583.656 449.562 576.328 452.6 576.328 467.212 576.328 481.822 584.718 483.999 591.788 483.999 597.642 483.999 601.193 481.497 601.193 481.497 601.339 481.417 601.355 481.212 601.355 481.117L601.355 464.801C601.355 464.525 601.131 464.301 600.855 464.301ZM655.506 450.81 649.48 450.81C649.204 450.811 648.981 451.036 648.982 451.312 648.982 451.312 648.982 451.313 648.982 451.313L648.984 462.957 639.592 462.957 639.592 451.313C639.594 451.037 639.371 450.812 639.095 450.81 639.095 450.81 639.095 450.81 639.095 450.81L633.07 450.81C632.794 450.811 632.571 451.036 632.572 451.312 632.572 451.312 632.572 451.313 632.572 451.313L632.572 482.843C632.572 483.12 632.796 483.346 633.07 483.346L639.095 483.346C639.371 483.344 639.594 483.119 639.592 482.843 639.592 482.843 639.592 482.842 639.592 482.842L639.592 469.356 648.984 469.356 648.968 482.842C648.968 483.12 649.192 483.346 649.468 483.346L655.506 483.346C655.782 483.344 656.005 483.119 656.003 482.843 656.003 482.843 656.003 482.842 656.003 482.842L656.003 451.312C656.003 451.034 655.783 450.81 655.506 450.81ZM608.34 451.527C606.196 451.527 604.456 453.28 604.456 455.45 604.456 457.617 606.196 459.375 608.34 459.375 610.486 459.375 612.225 457.617 612.225 455.45 612.225 453.28 610.485 451.527 608.34 451.527ZM611.296 461.135 605.29 461.135C605.014 461.135 604.768 461.419 604.768 461.695L604.768 482.547C604.768 483.16 605.15 483.342 605.644 483.342L611.054 483.342C611.649 483.342 611.794 483.05 611.794 482.537L611.794 476.191 611.794 461.638C611.795 461.362 611.572 461.137 611.296 461.136 611.296 461.136 611.296 461.136 611.296 461.136ZM678.902 461.182 672.922 461.182C672.646 461.184 672.424 461.41 672.426 461.686 672.426 461.686 672.426 461.686 672.426 461.686L672.426 477.146C672.426 477.146 670.906 478.256 668.751 478.256 666.596 478.256 666.024 477.279 666.024 475.168L666.024 461.686C666.026 461.41 665.804 461.184 665.528 461.182 665.528 461.182 665.527 461.182 665.527 461.182L659.459 461.182C659.183 461.184 658.96 461.41 658.961 461.686L658.961 476.188C658.961 482.458 662.456 483.992 667.263 483.992 671.207 483.992 674.387 481.812 674.387 481.812 674.387 481.812 674.537 482.962 674.607 483.097 674.677 483.233 674.854 483.37 675.047 483.37L678.907 483.353C679.184 483.352 679.408 483.126 679.407 482.849 679.407 482.849 679.407 482.849 679.407 482.849L679.404 461.683C679.403 461.407 679.18 461.183 678.904 461.181ZM695.244 460.474C691.848 460.474 689.538 461.989 689.538 461.989L689.538 451.312C689.54 451.036 689.317 450.811 689.041 450.809 689.041 450.809 689.041 450.809 689.041 450.809L683 450.809C682.724 450.809 682.5 451.033 682.5 451.309 682.5 451.31 682.5 451.311 682.5 451.312L682.5 482.842C682.498 483.118 682.721 483.343 682.997 483.345 682.998 483.345 682.999 483.345 683 483.345L687.192 483.345C687.382 483.345 687.524 483.248 687.629 483.077 687.732 482.907 687.883 481.623 687.883 481.623 687.883 481.623 690.353 483.963 695.031 483.963 700.521 483.963 703.671 481.179 703.671 471.461 703.671 461.743 698.641 460.473 695.243 460.473ZM692.884 478.238C690.811 478.175 689.404 477.234 689.404 477.234L689.404 467.249C689.404 467.249 690.792 466.399 692.494 466.245 694.647 466.052 696.722 466.703 696.722 471.839 696.722 477.256 695.787 478.325 692.885 478.237ZM629.195 478.12C628.932 478.12 628.258 478.227 627.565 478.227 625.345 478.227 624.592 477.195 624.592 475.859L624.592 466.993 629.112 466.993C629.388 466.993 629.612 466.769 629.612 466.493 629.612 466.492 629.612 466.49 629.612 466.489L629.612 461.633C629.613 461.357 629.39 461.132 629.114 461.131 629.113 461.131 629.113 461.131 629.112 461.131L624.592 461.131 624.585 455.161C624.585 454.934 624.469 454.821 624.207 454.821L618.047 454.821C617.809 454.821 617.68 454.927 617.68 455.156L617.68 461.326C617.68 461.326 614.593 462.071 614.385 462.131 614.172 462.193 614.025 462.389 614.025 462.611L614.025 466.488C614.023 466.764 614.246 466.989 614.522 466.991 614.522 466.991 614.522 466.991 614.522 466.991L617.68 466.991 617.68 476.319C617.68 483.249 622.54 483.929 625.82 483.929 627.317 483.929 629.11 483.449 629.406 483.339 629.586 483.272 629.689 483.087 629.689 482.886L629.693 478.621C629.689 478.346 629.468 478.124 629.193 478.119Z" fill="#BFBFBF"/></g></svg>