<svg width="381" height="178" xmlns="http://www.w3.org/2000/svg" xmlns:xlink="http://www.w3.org/1999/xlink" overflow="hidden"><defs><clipPath id="clip0"><rect x="132" y="255" width="381" height="178"/></clipPath></defs><g clip-path="url(#clip0)" transform="translate(-132 -255)"><path d="M332.333 142.332C326.923 142.332 322.867 144.36 320.838 147.741L319.824 149.769 319.824 143.346 311.034 143.346 311.034 182.563 320.5 182.563 320.5 159.236C320.5 153.826 323.543 150.446 328.952 150.446 334.023 150.446 336.728 153.488 336.728 158.898L336.728 182.563 346.194 182.563 346.194 157.207C345.856 148.079 340.785 142.332 332.333 142.332ZM286.692 142.332C275.535 142.332 268.774 149.431 268.774 160.588L268.774 165.997C268.774 176.816 275.873 183.239 287.03 183.239 294.468 183.239 299.877 180.535 302.92 174.787L297.172 171.407C294.806 174.787 290.749 176.816 287.03 176.816 281.283 176.816 277.902 173.435 277.902 167.35L277.902 165.659 304.272 165.659 304.272 159.236C303.934 149.093 297.172 142.332 286.692 142.332ZM295.482 159.912 277.902 159.912 277.902 158.898C277.902 152.474 280.945 148.755 286.692 148.755 292.101 148.755 295.482 152.136 295.482 158.221L295.482 159.912ZM439.504 136.922 439.504 129.485 407.048 129.485 407.048 136.922 418.543 136.922 418.543 175.126 407.048 175.126 407.048 182.563 439.504 182.563 439.504 175.126 428.009 175.126 428.009 136.922 439.504 136.922ZM192.368 128.47C177.83 128.47 168.702 137.599 168.702 152.136L168.702 159.912C168.702 174.449 177.83 183.577 192.368 183.577 206.905 183.577 216.033 174.449 216.033 159.912L216.033 152.136C216.033 137.599 206.905 128.47 192.368 128.47ZM206.229 160.588C206.229 170.392 201.158 175.802 192.368 175.802 183.577 175.802 178.506 170.392 178.506 160.588L178.506 151.46C178.506 141.656 183.577 136.246 192.368 136.246 201.158 136.246 206.229 141.656 206.229 151.46L206.229 160.588ZM245.784 142.67C240.713 142.67 236.656 144.698 234.29 148.079L233.275 149.431 233.275 143.346 224.485 143.346 224.485 196.086 233.951 196.086 233.951 177.154 234.966 178.506C236.994 181.549 241.389 183.577 246.122 183.577 254.236 183.577 262.35 178.168 262.35 166.335L262.35 159.574C262.012 151.122 256.941 142.332 245.784 142.67L245.784 142.67ZM252.546 165.997C252.546 172.421 248.827 176.14 243.08 176.14 237.67 176.14 233.613 172.083 233.613 165.997L233.613 160.25C233.613 154.165 237.332 150.108 243.08 150.108 248.827 150.108 252.546 154.165 252.546 160.25L252.546 165.997ZM371.888 129.485 352.956 182.563 362.422 182.563 366.141 171.069 388.116 171.069 388.116 171.069 391.835 182.225 401.301 182.225 382.369 129.147 371.888 129.485ZM368.507 163.631 376.959 136.922 385.411 163.631 368.507 163.631ZM144.36 156.193C146.051 151.46 145.374 146.389 143.008 142.332 139.289 135.908 131.851 132.527 124.752 134.218 120.695 129.823 114.609 127.794 108.524 128.809 102.438 130.161 97.7052 134.556 95.6767 140.303 90.9436 141.317 86.8866 144.36 84.52 148.417 80.8011 154.841 81.4773 162.955 86.5485 168.364 84.8581 173.097 85.5343 178.168 87.9008 182.225 91.6197 188.649 99.0575 192.03 106.157 190.339 109.538 194.058 113.933 196.086 119.004 196.086 126.442 196.086 132.865 191.353 135.232 184.254 139.965 183.239 144.022 180.197 146.389 176.14 150.108 169.716 149.431 161.602 144.36 156.193ZM119.004 191.691C115.961 191.691 113.257 190.677 110.89 188.649L111.228 188.311 124.752 180.535C125.428 180.197 125.766 179.521 125.766 178.506L125.766 159.574 131.513 162.955C131.513 162.955 131.513 162.955 131.513 162.955L131.513 178.844C131.513 185.944 126.104 191.691 119.004 191.691L119.004 191.691ZM91.6197 179.859C90.2674 177.154 89.5912 174.449 90.2674 171.407L90.6055 171.745 104.129 179.521C104.805 179.859 105.481 179.859 106.495 179.521L123.061 170.054 123.061 176.478C123.061 176.478 123.061 176.478 123.061 176.816L109.538 184.592C103.114 187.973 95.3386 185.944 91.6197 179.859ZM88.2389 150.784C89.5912 148.079 91.9578 146.389 95.0005 145.374L95.0005 161.264C95.0005 161.94 95.3386 162.617 96.0148 163.293L112.243 172.759 106.495 176.14C106.495 176.14 106.495 176.14 106.157 176.14L92.6339 168.364C86.8866 164.307 84.8581 156.531 88.2389 150.784L88.2389 150.784ZM134.894 161.602 118.666 152.136 124.413 148.755C124.413 148.755 124.413 148.755 124.752 148.755L138.275 156.531C142.67 158.898 145.036 163.631 144.698 168.702 144.36 173.435 140.979 177.83 136.584 179.521L136.584 163.631C136.246 162.617 135.57 161.94 134.894 161.602L134.894 161.602ZM140.641 153.15 140.303 152.812 126.78 145.036C126.104 144.698 125.09 144.698 124.413 145.036L108.186 154.503 108.186 148.079C108.186 148.079 108.186 148.079 108.186 147.741L121.709 139.965C126.104 137.599 131.175 137.599 135.232 140.641 139.289 143.346 141.317 148.079 140.641 153.15L140.641 153.15 140.641 153.15ZM105.143 164.645 99.3956 161.264C99.3956 161.264 99.3956 161.264 99.3956 161.264L99.3956 145.374C99.3956 140.303 102.1 135.908 106.833 133.88 111.228 131.851 116.638 132.527 120.357 135.57L120.018 135.908 106.495 143.684C105.819 144.022 105.481 144.698 105.481 145.713L105.143 164.645ZM108.186 157.883 115.623 153.826 123.061 157.883 123.061 166.335 115.623 170.392 108.186 166.335 108.186 157.883 108.186 157.883Z" fill="#00B050" fill-rule="evenodd" transform="matrix(1.00127 0 0 1 51.9531 186.249)"/></g></svg>