<svg width="3212" height="1313" xmlns="http://www.w3.org/2000/svg" xmlns:xlink="http://www.w3.org/1999/xlink" overflow="hidden"><defs><clipPath id="clip0"><rect x="231" y="363" width="3212" height="1313"/></clipPath><clipPath id="clip1"><rect x="231" y="363" width="1314" height="1314"/></clipPath><clipPath id="clip2"><rect x="231" y="363" width="1314" height="1314"/></clipPath><clipPath id="clip3"><rect x="231" y="363" width="1314" height="1314"/></clipPath><linearGradient x1="435.857" y1="1224.36" x2="435.857" y2="731.649" gradientUnits="userSpaceOnUse" spreadMethod="pad" id="fill4"><stop offset="0" stop-color="#FF2D76"/><stop offset="1" stop-color="#FB0000"/></linearGradient><linearGradient x1="1339.14" y1="1224.36" x2="1339.14" y2="731.649" gradientUnits="userSpaceOnUse" spreadMethod="pad" id="fill5"><stop offset="0" stop-color="#FF2D76"/><stop offset="1" stop-color="#FB0000"/></linearGradient><linearGradient x1="887.5" y1="1676" x2="887.5" y2="772.709" gradientUnits="userSpaceOnUse" spreadMethod="pad" id="fill6"><stop offset="0" stop-color="#FF2D76"/><stop offset="1" stop-color="#FB0000"/></linearGradient><linearGradient x1="887.5" y1="731.649" x2="887.5" y2="363" gradientUnits="userSpaceOnUse" spreadMethod="pad" id="fill7"><stop offset="0" stop-color="#FF2D76"/><stop offset="1" stop-color="#FB0000"/></linearGradient></defs><g clip-path="url(#clip0)" transform="translate(-231 -363)"><g clip-path="url(#clip1)"><g clip-path="url(#clip2)"><g clip-path="url(#clip3)"><path d="M435.869 731.666C390.53 731.666 353.766 768.471 353.766 813.769L353.766 1142.22C353.766 1187.56 390.571 1224.33 435.869 1224.33 481.168 1224.33 517.973 1187.52 517.973 1142.22L517.973 813.769C517.973 768.389 481.168 731.666 435.869 731.666Z" fill="url(#fill4)"/><path d="M1339.13 731.666C1293.79 731.666 1257.03 768.471 1257.03 813.769L1257.03 1142.22C1257.03 1187.56 1293.83 1224.33 1339.13 1224.33 1384.47 1224.33 1421.23 1187.52 1421.23 1142.22L1421.23 813.769C1421.28 768.389 1384.47 731.666 1339.13 731.666Z" fill="url(#fill5)"/><path d="M559.045 1388.58 641.148 1388.58 641.148 1593.86C641.148 1639.2 677.953 1675.96 723.252 1675.96 768.55 1675.96 805.355 1639.15 805.355 1593.86L805.355 1388.58 969.604 1388.58 969.604 1593.86C969.604 1639.2 1006.41 1675.96 1051.71 1675.96 1097.01 1675.96 1133.81 1639.15 1133.81 1593.86L1133.81 1388.58 1215.91 1388.58 1215.91 772.697 559.045 772.697 559.045 1388.58Z" fill="url(#fill6)"/><path d="M1081.41 466.891 1123.59 393.855C1129.3 384.008 1125.93 371.493 1116.04 365.79 1106.28 360.087 1093.68 363.451 1088.02 373.34L1046.91 444.529C999.68 418.269 945.395 403.17 887.5 403.17 829.646 403.17 775.362 418.228 728.094 444.57L686.939 373.299C681.236 363.492 668.762 360.128 658.874 365.79 649.108 371.452 645.744 383.967 651.365 393.814L693.586 466.891C612.18 526.674 559.045 622.851 559.045 731.666L1216 731.666C1215.96 622.851 1162.82 526.674 1081.41 466.891ZM764.324 608.49C741.634 608.49 723.252 590.149 723.252 567.418 723.252 544.686 741.593 526.345 764.324 526.345 787.015 526.345 805.396 544.686 805.396 567.418 805.396 590.149 787.015 608.49 764.324 608.49ZM1010.68 608.49C987.986 608.49 969.604 590.149 969.604 567.418 969.604 544.686 987.945 526.345 1010.68 526.345 1033.37 526.345 1051.75 544.686 1051.75 567.418 1051.75 590.149 1033.37 608.49 1010.68 608.49Z" fill="url(#fill7)"/></g></g></g><text fill="#FF0000" font-family="Times New Roman,Times New Roman_MSFontService,sans-serif" font-weight="400" font-size="458" transform="matrix(1 0 0 1 1538.62 1215)">Robotics</text></g></svg>